<svg id="Ebene_1" xmlns="http://www.w3.org/2000/svg" viewBox="0 0 177 42.5"><style>.st0{fill:#9D9C98;} .st1{fill:#E30613;} .st2{fill:#1D1D1B;}</style><title>Zeichenfläche 1</title><path class="st0" d="M7.4 33.7v2h-.7v-2l-1.9-3h.8L7.1 33l1.5-2.4h.8l-2 3.1zM10.9 32c.9 0 1.7.7 1.8 1.7v.2c0 1-.8 1.8-1.8 1.8s-1.8-.8-1.8-1.8c0-.9.6-1.8 1.6-1.9h.2zm0 3.3c.6 0 1.1-.5 1.1-1.4s-.5-1.4-1.1-1.4-1.1.5-1.1 1.4.5 1.4 1.1 1.4zM16.5 35.7H16v-.6c-.2.4-.7.7-1.2.7-1 0-1.2-.5-1.2-1.3v-2.4h.6v2.5c0 .4.3.7.6.7h.1c.6 0 1-.4 1.1-.9v-2.2h.6l-.1 3.5zM17.6 32.1h.6v.8c.2-.6.8-.9 1.4-.8v.6c-1 0-1.3.5-1.3 1.5v1.6h-.6l-.1-3.7zM22 30.7h3.5v.6h-2.8v1.6h2.6v.6h-2.6v1.7h2.8v.6H22v-5.1zM27.5 33.8l-1.3-1.7h.8l.9 1.3.9-1.3h.7l-1.3 1.7 1.4 2h-.8l-1-1.5-1 1.5h-.7l1.4-2zM30.3 32.1h.6v.5c.2-.4.7-.6 1.2-.6.9 0 1.7.8 1.7 1.7v.2c.1.9-.5 1.8-1.4 1.9h-.2c-.5 0-.9-.2-1.2-.6v1.9h-.6l-.1-5zm1.7.4c-.8 0-1.1.7-1.1 1.4s.3 1.4 1.1 1.4 1.1-.7 1.1-1.4-.3-1.4-1.1-1.4zM37.7 34.6c-.1.8-.8 1.3-1.5 1.2-1.2 0-1.7-.8-1.7-1.9-.1-1 .6-1.8 1.6-1.9h.1c1.3 0 1.7 1.2 1.6 2.1H35c-.1.6.4 1.1.9 1.2h.2c.5 0 .9-.3.9-.7h.7zm-.6-1c0-.6-.4-1-1-1s-1 .4-1 1h2zM38.5 32.1h.6v.8c.2-.6.8-.9 1.3-.8v.6c-1 0-1.3.5-1.3 1.5v1.6h-.6v-3.7zM42.1 32.1h.7v.5h-.7v2.2c0 .3.1.3.5.3h.3v.5h-.5c-.6 0-.9-.1-.9-.8v-2.3h-.6V32h.6v-1h.6v1.1zM45.6 30.7h2.2c.8 0 1.5.7 1.5 1.5s-.7 1.5-1.5 1.5h-1.5v2h-.7v-5zm.7 2.4h1.3c.8 0 1.1-.3 1.1-.9s-.3-.9-1.1-.9h-1.3v1.8zM53.3 35.7c-.1.1-.3.1-.4.1-.3 0-.5-.2-.5-.6-.3.4-.8.6-1.3.6-.7 0-1.2-.3-1.2-1s.6-1 1.2-1.1 1.2-.1 1.2-.5-.4-.6-.8-.6-.9.2-.9.7H50c0-.9.7-1.2 1.5-1.2.7 0 1.4.2 1.4 1V35c0 .3 0 .4.2.4h.2v.3zm-1-1.9c-.3.1-.7.2-1.1.2-.4.1-.7.2-.7.7s.3.5.7.5c.8 0 1.1-.5 1.1-.8v-.6zM54 32.1h.6v.8c.2-.6.8-.9 1.4-.8v.6c-1 0-1.3.5-1.3 1.5v1.6H54v-3.7zM57.6 32.1h.7v.5h-.7v2.2c0 .3.1.3.5.3h.3v.5h-.5c-.6 0-.9-.1-.9-.8v-2.3h-.6V32h.6v-1h.6v1.1zM59.1 32.1h.6v.6c.2-.4.7-.7 1.2-.7 1 0 1.2.5 1.2 1.3v2.4h-.6v-2.4c0-.4-.3-.7-.6-.7h-.1c-.6 0-1 .4-1.1.9v2.2h-.6v-3.6zM66.2 34.6c-.1.8-.8 1.3-1.6 1.2-1.2 0-1.7-.8-1.7-1.9-.1-1 .6-1.8 1.6-1.9h.1c1.3 0 1.7 1.2 1.6 2.1h-2.7c-.1.6.4 1.1.9 1.2h.2c.5 0 .9-.3.9-.7h.7zm-.5-1c0-.6-.5-1-1-1s-1 .5-1 1h2zM67.1 32.1h.6v.8c.2-.6.8-.9 1.4-.8v.6c-1 0-1.3.5-1.3 1.5v1.6h-.6l-.1-3.7zM71.7 32.6h-.6v-.5h.6v-.5c0-.6.3-.9 1-.9.1 0 .3 0 .4.1v.5h-.3c-.3 0-.4.1-.4.4v.5h.6v.5h-.7v3.1h-.6v-3.2zM75.2 32c.9 0 1.7.7 1.8 1.7v.2c0 1-.8 1.8-1.8 1.8s-1.8-.8-1.8-1.8c-.1-.9.6-1.8 1.5-1.9h.3zm0 3.3c.6 0 1.1-.5 1.1-1.4s-.5-1.4-1.1-1.4-1.1.5-1.1 1.4.5 1.4 1.1 1.4zM77.8 32.1h.6v.8c.2-.6.8-.9 1.3-.8v.6c-1 0-1.3.5-1.3 1.5v1.6h-.6v-3.7zM82.2 30.7h.9v2h2.3v-2h.9v5h-.9v-2.3h-2.3v2.3h-.9v-5zM90.5 35.7h-.8v-.5c-.2.4-.6.6-1 .6-.9 0-1.3-.5-1.3-1.4v-2.3h.8v2.2c0 .6.3.9.7.9.7 0 .9-.4.9-1v-2.1h.8l-.1 3.6zM91.6 32.1h.8v.5c.2-.4.7-.6 1.1-.6.4 0 .8.2 1 .6.2-.4.7-.6 1.1-.6.6-.1 1.1.3 1.2.9v2.8H96v-2.1c0-.6 0-1-.7-1s-.8.4-.8 1v2.1h-.8v-2.3c0-.5-.2-.8-.6-.8-.5 0-.8.4-.8.9V35.8h-.8l.1-3.7zM100.9 34.9c0 .2 0 .3.2.3h.2v.5c-.2.1-.3.1-.5.1-.3 0-.6-.1-.6-.4-.3.3-.8.5-1.2.4-.6.1-1.2-.3-1.2-1v-.1c0-.9.7-1 1.4-1.1s1.1 0 1.1-.5-.4-.5-.8-.5-.8.2-.8.6h-.8c.1-.9.8-1.2 1.7-1.2s1.4.3 1.4 1l-.1 1.9zm-.8-1c-.3.1-.7.2-1 .2-.3.1-.7.2-.7.6s.5.5.7.5.9-.2.9-.7l.1-.6zM101.9 32.1h.8v.5c.2-.4.7-.6 1.1-.6.6-.1 1.2.4 1.3 1v2.7h-.8v-2.3c0-.6-.2-.8-.7-.8-.5 0-.9.4-.9.9v2.2h-.8v-3.6zM108.1 30.7h1.2l1.4 3.9 1.3-3.9h1.2v5h-.8v-3.9l-1.4 3.9h-.7l-1.4-3.9v3.9h-.8v-5zM117.4 34.9c0 .2 0 .3.2.3h.2v.5c-.2.1-.3.1-.5.1-.3 0-.6-.1-.6-.4-.3.3-.8.5-1.2.4-.6.1-1.2-.3-1.2-1v-.1c0-.9.7-1 1.4-1.1s1.1 0 1.1-.5-.4-.5-.8-.5-.8.2-.8.6h-.8c.1-.9.8-1.2 1.7-1.2s1.4.3 1.4 1l-.1 1.9zm-.8-1c-.3.1-.7.2-1 .2-.3.1-.7.2-.7.6s.5.5.7.5.9-.2.9-.7l.1-.6zM120.9 33.3c0-.4-.4-.7-.8-.7s-1 .2-1 1.3c0 .6.3 1.2 1 1.2.5 0 .8-.4.9-.8h.8c-.1.9-.8 1.5-1.6 1.5h-.1c-.9 0-1.7-.7-1.8-1.6V34c-.1-1 .6-1.8 1.5-1.9h.3c.8-.1 1.5.5 1.6 1.3l-.8-.1zM122.5 30.7h.8v1.9c.2-.4.7-.6 1.1-.6.6-.1 1.2.4 1.3 1v2.7h-.8v-2.3c0-.6-.2-.8-.7-.8-.5 0-.9.4-.9.9v2.2h-.8v-5zM126.7 30.7h.8v.8h-.8v-.8zm0 1.4h.8v3.6h-.8v-3.6zM128.6 32.1h.8v.5c.2-.4.7-.6 1.1-.6.6-.1 1.2.4 1.3 1v2.7h-.8v-2.3c0-.6-.2-.8-.7-.8-.5 0-.9.4-.9.9v2.2h-.8v-3.6zM133.4 34.1c0 .6.4 1 .9 1.1h.1c.4 0 .8-.2.9-.6h.8c-.2.8-.9 1.3-1.6 1.2-.9 0-1.7-.7-1.8-1.7v-.3c-.1-1 .6-1.8 1.6-1.9 1-.1 1.8.6 1.9 1.6v.5l-2.8.1zm1.8-.5c0-.5-.4-.9-.9-.9s-.9.4-.9.9h1.8zM138.8 30.7h.9v5h-.9v-5zM140.8 32.1h.8v.5c.2-.4.7-.6 1.1-.6.6-.1 1.2.4 1.3 1v2.7h-.8v-2.3c0-.6-.2-.8-.7-.8-.5 0-.9.4-.9.9v2.2h-.8v-3.6zM144.6 32.1h.6V31h.8v1.1h.7v.6h-.7v1.9c0 .3 0 .5.4.5h.3v.6h-.5c-.8 0-1-.3-1-.9v-2.1h-.6v-.6zM148 34.1c0 .6.4 1 .9 1.1h.1c.4 0 .8-.2.9-.6h.8c-.2.8-.9 1.3-1.6 1.2-.9 0-1.7-.7-1.8-1.7v-.3c-.1-1 .6-1.8 1.6-1.9 1-.1 1.8.6 1.9 1.6v.5l-2.8.1zm1.9-.5c0-.5-.4-.9-.9-.9s-.9.4-.9.9h1.8zM151.4 32.1h.8v.7c.2-.5.6-.8 1.1-.8h.3v.8h-.3c-.6 0-1 .4-1 1.2v1.7h-.8l-.1-3.6zM154 32.1h.6v-.3c0-.9.5-1.1 1-1.1h.6v.6h-.4c-.2 0-.4.1-.4.4v.4h.6v.6h-.7v3h-.8v-3h-.5v-.6zM159.7 34.9c0 .2 0 .3.2.3h.2v.5c-.2.1-.3.1-.5.1-.3 0-.6-.1-.6-.4-.3.3-.8.5-1.2.4-.6.1-1.2-.3-1.2-1v-.1c0-.9.7-1 1.4-1.1s1.1 0 1.1-.5-.4-.5-.8-.5-.8.2-.8.6h-.8c.1-.9.9-1.2 1.6-1.2s1.4.3 1.4 1v1.9zm-.8-1c-.3.1-.7.2-1 .2-.3.1-.6.2-.6.6s.5.5.7.5.9-.2.9-.7v-.6zM163.2 33.3c0-.4-.4-.7-.8-.7s-1 .2-1 1.3c0 .6.3 1.2 1 1.2.5 0 .8-.4.9-.8h.8c-.1.9-.8 1.5-1.7 1.5-.9 0-1.7-.7-1.8-1.6V34c-.1-1 .6-1.8 1.5-1.9h.2c.8-.1 1.5.5 1.6 1.3h-.7zM165.4 34.1c0 .6.4 1 .9 1.1h.1c.4 0 .8-.2.9-.6h.8c-.2.8-.9 1.3-1.6 1.2-.9 0-1.7-.7-1.8-1.7v-.3c-.1-1 .6-1.8 1.6-1.9 1-.1 1.8.6 1.9 1.6v.5l-2.8.1zm1.9-.5c0-.5-.4-.9-.9-.9s-.9.4-.9.9h1.8zM169.5 34.5c0 .5.4.6.8.6s.8-.1.8-.5-.6-.5-1.2-.6-1.2-.3-1.2-1.1.9-1 1.5-1 1.4.3 1.5 1.1h-.7c-.1-.4-.4-.5-.7-.5s-.7.1-.7.4.6.5 1.2.6 1.2.3 1.2 1.1-.9 1.2-1.6 1.2c-.9 0-1.6-.4-1.6-1.3h.7z"/><path class="st1" d="M159.9 6.2h12.2v12.3h-12.2V6.2z"/><path class="st2" d="M147.5 6c3.4-.1 6.3 2.6 6.4 6v.4c.1 3.5-2.6 6.5-6.1 6.6-3.5.1-6.5-2.6-6.6-6.1v-.5c-.1-3.4 2.5-6.3 6-6.4h.3zm0 9.8c1.9 0 2.4-1.8 2.4-3.4s-.5-3.4-2.4-3.4-2.4 1.8-2.4 3.4.5 3.3 2.4 3.4zM123.5 10.1c0-1.3.7-2.6 1.9-3.2 1.2-.6 2.5-.9 3.8-.8 2.9 0 5.6.6 5.6 4.1v5.3c-.1 1.1.1 2.1.5 3.1h-4c-.1-.4-.2-.8-.2-1.1-1.1 1-2.5 1.6-4 1.5-2.3 0-4.1-1.2-4.1-3.7 0-3.9 4.3-3.6 7-4.2.7-.2 1-.4 1-1.1 0-.9-1.1-1.3-1.9-1.3-1-.1-1.9.5-2 1.5l-3.6-.1zm5.1 6.2c1.9 0 2.5-1 2.4-3.6-.8.3-1.6.5-2.4.6-.9.2-1.6.6-1.6 1.5s.7 1.5 1.6 1.5zM108.1 13.3c-.1 1.4 1 2.6 2.4 2.7h.3c.9.1 1.8-.5 2.2-1.3h3.7c-.7 2.8-3.3 4-6 4-3.9 0-6.6-2.4-6.6-6.4 0-3.5 2.8-6.4 6.3-6.4h.2c4.3 0 6.5 3.3 6.3 7.4h-8.8zm4.9-2.2c0-1.3-1-2.4-2.4-2.5-1.4 0-2.5 1.1-2.6 2.5h5z"/></svg>